<svg version="1.2" xmlns="http://www.w3.org/2000/svg" viewBox="0 0 210 700" width="210" height="700"><style>.a{fill:#fcfcfc}.b{fill:#fff}</style><path class="a" d="m47.2 29.2h-2.8v-5.4c0-4.2-4.1-9-9.5-9-5.4 0-9.5 4.8-9.5 9v5.4h-2.6c-1.3 0-2.3 1.1-2.3 2.3v17.4c0 1.3 1 2.3 2.3 2.3h24.4c1.3 0 2.3-1 2.3-2.3v-17.4c0-1.2-1-2.3-2.3-2.3zm-18.3-5.4c0-2.2 2.3-5.5 6-5.5 3.7 0 6 3.3 6 5.5v5.4h-12c0 0 0-5.4 0-5.4z"/><path fill-rule="evenodd" class="b" d="m19.8 462.9c-1.2 0-2.2-1-2.2-2.3 0-1.2 1-2.2 2.2-2.2 1.3 0 2.3 1 2.3 2.3 0 1.2-1 2.2-2.3 2.2z"/><path fill-rule="evenodd" class="b" d="m26 436.1c-1.2 0-2.2-1-2.2-2.2 0-1.3 1-2.3 2.2-2.3 1.3 0 2.3 1 2.3 2.3 0 1.2-1 2.2-2.3 2.2z"/><path class="b" d="m51.6 455.8q-0.9-0.9-1.9-1.5c-0.7-0.4-24.1-15.3-24.1-15.3l6.5 12.3-17.9-12 19.5 30.7q0.7 1.1 1.6 2c4.5 4.5 11.8 4.5 16.3 0 4.5-4.4 4.5-11.7 0-16.2zm-3.1 13.1c-2.8 2.8-7.3 2.8-10 0-2.8-2.7-2.8-7.2 0-10 2.7-2.7 7.2-2.7 10 0 2.7 2.8 2.7 7.3 0 10z"/><path class="b" d="m48.5 245.8c-1.8-1.9-1.4-4.3-1-5.5 0.1-0.3-0.2-0.6-0.5-0.5-1.2 0.3-3.6 0.7-4.9-1-1.6-2.2-0.6-4.2 0.2-5.2 0.2-0.2 0-0.6-0.3-0.6-1-0.2-2.9-0.7-3.8-2-1.3-1.6-0.8-3.5-0.3-4.8-2-0.3-4.1-0.2-6.3 0.1-8.3 1.6-14.7 8.6-15.5 17.1-0.9 11.2 7.9 20.6 18.9 20.6 10 0 18.2-7.8 18.9-17.6-1.3 0.4-3.9 0.9-5.4-0.6zm-13.5 5.7c-3.5 0-6.4-2.9-6.4-6.5 0-3.6 2.9-6.5 6.4-6.5 3.6 0 6.5 2.9 6.5 6.5 0 3.6-2.9 6.5-6.5 6.5z"/><path class="b" d="m45.9 220.2c-1.2-0.3-2-0.3-2.3 0.2-0.1 0.3-0.2 4.3-0.2 4.6 0 0.4 1.1 1 1.4 1.1 0.3 0.1 0.6 0.2 0.8-0.1 0.1-0.3 1.9-4 2.1-4.4 0.1-0.3-0.8-1.2-1.8-1.4z"/><path class="b" d="m51.2 226.6c-1.6 0.4-2.8 1.1-3.3 2.7-0.5 1.4-0.2 4 1.1 4.3 0.9 0.3 3-0.2 3.3-0.8 0.3-0.5 1-6.7-1.1-6.2z"/><path class="b" d="m193.7 176.9c0 0 2-9.4 0.3-13.6-1.8-4.3-7.6-8.9-7.6-8.9l-6.2 2.2 2.6 4.7-26.7 4.7c-0.4 0-0.7 0.4-0.7 0.9l0.5 2.5c0.1 0.4 0.5 0.7 0.9 0.7l15.9-2.7-10.7 24.3c-0.4 0.9 0 1.9 0.8 2.3 0.9 0.4 2 0 2.4-0.9l9.8-22.2 9.9 22.4c0.4 0.9 1.4 1.3 2.3 0.9 0.9-0.4 1.3-1.4 0.9-2.3l-11.2-25.2 8.5-1.5 8.3 11.7z"/><path class="b" d="m187.1 311.7c1.8-0.1 3.9-0.2 4.5-0.2 2.4 0 2.5-4 0.1-4h-25.8l-11.5 21.8h42.2z"/><path class="b" d="m178.5 294.4c-0.2-0.2-1.4 0.4-2.3 0.3-0.4 0-1.3-0.3-1.8-0.4-0.5-0.1-1.9-0.3-2.3 0.1-0.2 0.1-1.6 3-2.3 4.7-2.5 0-7.3 0-8 0-2.4 0-2.5 3.9-0.1 3.9h20.4l-3.6-8.6z"/><path fill-rule="evenodd" class="b" d="m35 317.3c-1.2-0.1-2.3-1.1-2.3-2.3 0-1.2 1.1-2.3 2.3-2.3 1.2 0 2.3 1.1 2.3 2.3 0 1.2-1.1 2.2-2.3 2.2z"/><path class="b" d="m49.4 321.3c-1.9 3.6-5.9 7.1-6.1 7.2-0.4 0.4-1 0.5-1.5 0.5-0.7 0-1.3-0.2-1.8-0.8-0.8-0.9-0.7-2.4 0.3-3.2 0 0 3.6-3.1 5.1-5.8 0.9-1.9 3.5-10 5.6-16.7-3.7-4.7-9.5-7.8-16-7.8-11.2 0-20.2 9.1-20.2 20.3 0 11.2 9 20.3 20.2 20.3 11.2 0 20.3-9.1 20.3-20.3 0-2.4-0.4-4.7-1.2-6.9-1.7 5.2-3.7 11.3-4.7 13.2zm-22.2-6.3c0-4.3 3.5-7.8 7.8-7.8 4.3 0 7.8 3.5 7.8 7.8 0 4.3-3.5 7.8-7.8 7.8-4.3 0-7.8-3.5-7.8-7.8z"/><path class="b" d="m128.8 307.6c-0.7-1.8-11.7 0.8-24.5 5.8-12.8 5-22.5 10.5-21.8 12.4 0.3 0.9 3.1 0.7 7.4-0.3q0 0 0 0c4.8 6.9 13.7 9.8 21.8 6.6 8.1-3.1 12.6-11.4 11.5-19.6q0 0 0 0c3.8-2.2 5.9-4 5.6-4.9z"/><path class="b" d="m102.7 309.1c6-2.4 12-4.3 16.7-5.5-4.9-6.2-13.4-8.8-21.1-5.7-7.8 3-12.3 10.7-11.6 18.5 4.2-2.3 9.9-4.9 16-7.3z"/><path class="b" d="m187 237h-12-12l-3 9.5h15 15z"/><path class="b" d="m193 251h-18-18l-3 10h21 21z"/><path class="b" d="m167 223.5v9h4.8v-4.5h6.5v4.5h4.7v-9z"/><path class="b" d="m31.6 171.6l2.6-11.8c0.2-0.9 1.4-0.9 1.6 0l2.6 11.8 11.8 2.6c0.9 0.2 0.9 1.4 0 1.6l-11.8 2.6-2.6 11.8c-0.2 0.9-1.4 0.9-1.6 0l-2.6-11.8-11.8-2.6c-0.9-0.2-0.9-1.4 0-1.6z"/><path fill-rule="evenodd" class="b" d="m43.6 168.1c-1.2 0-2.2-1-2.2-2.2 0-1.3 1-2.3 2.2-2.3 1.3 0 2.3 1 2.3 2.3 0 1.2-1 2.2-2.3 2.2z"/><path fill-rule="evenodd" class="b" d="m50.4 162.2c-1.2 0-2.3-1.1-2.3-2.3 0-1.2 1.1-2.2 2.3-2.2 1.2 0 2.3 1 2.3 2.2 0 1.2-1.1 2.3-2.3 2.3z"/><path fill-rule="evenodd" class="b" d="m19.1 191.6c-1.3 0-2.3-1-2.3-2.2 0-1.3 1-2.3 2.3-2.3 1.2 0 2.2 1 2.2 2.3 0 1.2-1 2.2-2.2 2.2z"/><path fill-rule="evenodd" class="b" d="m25.8 185.7c-1.2 0-2.2-1.1-2.2-2.3 0-1.2 1-2.2 2.2-2.2 1.3 0 2.3 1 2.3 2.2 0 1.2-1 2.3-2.3 2.3z"/><path fill-rule="evenodd" class="b" d="m43.6 185.7c-1.2 0-2.2-1.1-2.2-2.3 0-1.2 1-2.2 2.2-2.2 1.3 0 2.3 1 2.3 2.2 0 1.2-1 2.3-2.3 2.3z"/><path fill-rule="evenodd" class="b" d="m50.4 191.6c-1.2 0-2.3-1-2.3-2.2 0-1.3 1.1-2.3 2.3-2.3 1.2 0 2.3 1 2.3 2.3 0 1.2-1.1 2.2-2.3 2.2z"/><path fill-rule="evenodd" class="b" d="m25.8 168.1c-1.2 0-2.2-1-2.2-2.2 0-1.3 1-2.3 2.2-2.3 1.3 0 2.3 1 2.3 2.3 0 1.2-1 2.2-2.3 2.2z"/><path fill-rule="evenodd" class="b" d="m19.1 162.2c-1.3 0-2.3-1.1-2.3-2.3 0-1.2 1-2.2 2.3-2.2 1.2 0 2.2 1 2.2 2.2 0 1.2-1 2.3-2.2 2.3z"/><path class="b" d="m86 172.5l19 23 19-23z"/><path class="b" d="m98.3 158l6.7 10 6.8-10z"/><path class="b" d="m124 168l-6.8-10-6.7 10z"/><path class="b" d="m99.5 168l-6.8-10-6.7 10z"/><path class="b" d="m174.9 433.9l-20.8 35.3h41.8l-21-35.3zm0.1 23.9c-2.3 0-4.2-1.9-4.2-4.3 0-2.3 1.9-4.2 4.2-4.2 2.3 0 4.2 1.9 4.2 4.2 0 2.4-1.9 4.3-4.2 4.3z"/><path class="b" d="m89.2 250.3c-2.4 2.3-4.5 8.3-4.5 8.3 0 0 6-2.1 8.4-4.5z"/><path class="b" d="m96 257c-2.4 2.4-4.5 8.4-4.5 8.4 0 0 6-2.1 8.4-4.5z"/><path class="b" d="m116.1 247.4l6.7-11.1c1.6-2.7 1.4-8.1 0.2-9.2-1.1-1.1-6.5-1.4-9.2 0.2l-11.1 6.7-12.1-0.2-5.7 5.7 12.8 12.9 12.9 12.9 5.7-5.7zm-10.8-10.9l11.1-6.6 3.9 3.8-6.7 11.1z"/><path class="b" d="m122.1 378.6c-2.6-4.1-8-8.1-8-8.1 0 0 0.6-2.2 0.5-2.9-0.1-0.3-1.2-0.9-1.2-0.9 0 0-1-0.5-1.4-0.3-0.6 0.2-2 2-2 2 0 0-6.4-1.8-11.3-1.4-4.9 0.5-10.8 3-10.8 3 0 0-1.6 3.3-1.8 3.6 1.3 1.6 5.6 4.4 6.3 4.8 0.7-1.1 2-2.7 2.5-3 0.7-0.6 1.3-0.7 2-0.2 0.9 0.6-0.2 2.8-1.5 5.1 2 1.2 5.8 3.2 7.1 3.9 1.1-2.3 2.7-4.7 4.2-3.9 1.5 0.7 0.6 3.5-0.5 5.7 1.3 0.6 5.2 2.5 7.3 3.3 1.1-2.5 2.2-4.6 3.2-4.3 0.8 0.3 1.1 0.8 1.1 1.7 0 0.6-0.5 2.6-0.9 3.9 0.8 0.3 5.6 2 7.6 2.1 0.2-0.4 1.7-3.6 1.7-3.6 0 0-1.5-6.3-4.1-10.5z"/><path class="b" d="m92.4 404.1l7.3-14.8 4 2-7.3 14.8z"/><path class="b" d="m187.8 376.9l-6.2 4.1-6.1-4.1-6.1 4.1v-9.2l-6.2-8.2-6.1 8.2v30.7h13.8v-6.9c0-2.6 2.1-4.6 4.6-4.6 2.5 0 4.6 2 4.6 4.6v6.9h13.8v-21.5l-6.1-4.1z"/><path class="b" d="m58.3 396.8c-1.3-1.9-3.8-4.9-8-8.4-4.6-3.8-8.1-5.2-8.1-5.2 0 0 2-3.7 2.8-5.1 0.7-1.4 1.9-4 1.4-4.5-0.5-0.5-3.1 0.7-4.5 1.5-1.4 0.7-5.1 2.7-5.1 2.7 0 0-1.4-3.5-5.2-8.1-3.5-4.2-6.5-6.7-8.4-8-1.1-0.7-1.7 1-2.2 3.9-0.9 5.7-1.5 12.8 4.6 23 0 0-6.5 4.6-8.1 5.6-1 0.7-0.9 1.5-0.5 1.9 0.4 0.4 3 3.2 3.4 3.5 0.3 0.4 3.1 3 3.5 3.4 0.4 0.4 1.2 0.6 1.9-0.4 1-1.7 5.6-8.2 5.6-8.2 10.2 6.1 17.3 5.5 23 4.6 2.9-0.5 4.6-1.1 3.9-2.1z"/><path class="b" d="m108.3 449.9c-9-3.6-17.1-1.7-26 2.5 3.5 9.2 8.1 16.1 17.2 19.7 9 3.6 17.1 1.7 26-2.5-3.6-9.1-8.2-16.1-17.2-19.7zm2.1 13.8c-1.4 3.6-5.5 5.3-9.1 3.9-3.6-1.5-5.4-5.6-4-9.2 1.5-3.6 5.6-5.4 9.2-3.9 3.6 1.4 5.4 5.5 3.9 9.1z"/><path class="b" d="m126 453.3c0.2 0.5 0.2 0.9-0.2 1.1-0.6 0.4-0.5 0.3-1 0.6-0.3 0.2-0.6 0.1-1-0.5-4.3-6.3-7.5-9.2-14-11.7-6.4-2.5-11.6-2.3-17.2-1.4-3.2 0.5-3.4-0.3-2.6-1.3 0.8-0.9 2.7-1.1 2.5-2-0.2-1-2.9 0.6-3.9-0.1-1.2-0.9 1.5-2.7 5.6-3.6 9.6-2 24 1.7 31.8 18.9z"/><path class="b" d="m57 518.4c0 0-5.1 0.8-10.2 4.4q0.1 1 0.1 2.2c0 8.6-3.5 15-6.1 18.5 3.7-0.5 8.5-2.1 12.3-7 5.6-7.5 3.9-18.1 3.9-18.1z"/><path class="b" d="m25.5 513c-3-2.8-5.4-3.9-5.4-3.9 0 0-1 2.4-1.3 6.3 1.6 0.6 3.3 1.4 5.1 2.5q0.7-2.7 1.6-4.9z"/><path class="b" d="m35 506.5c0 0-7.4 6.8-7.4 18.5 0 11.6 7.4 18.5 7.4 18.5 0 0 7.4-6.9 7.4-18.5 0-11.7-7.4-18.5-7.4-18.5z"/><path class="b" d="m51.2 515.4c-0.3-3.8-1.3-6.3-1.3-6.3 0 0-2.4 1.1-5.4 3.9q0.9 2.2 1.6 4.9c1.8-1.1 3.5-1.9 5.1-2.5z"/><path class="b" d="m13.1 518.4c0 0 5 0.8 10.1 4.4q-0.1 1-0.1 2.2c0 8.6 3.5 15 6.1 18.5-3.7-0.5-8.5-2.1-12.3-7-5.6-7.5-3.8-18.1-3.8-18.1z"/><path class="b" d="m86 514.5l1 4v25.5h11.3v-18.8c0-3.7 3-6.7 6.7-6.7 3.7 0 6.7 3 6.7 6.8v18.7h11.3v-25.5l1-4z"/><path class="b" d="m121 506h-9.8l-6.2-4-6.2 4h-9.8l-1 4h34z"/><path class="b" d="m194 513.8c-2.8-2.1-6.4-2.6-9.8-2.9 0.3-1.4 0.8-3.4 1.3-4.6 0.9-2.4-0.7-1.9-1.6-0.8-0.6 0.7-2.2 3-2.9 4.3-0.6 1-1.9 0.7-1.7-0.4 0.3-2 1-4.4 2.1-7 0.7-1.6-0.7-1.5-1.4-0.7-1.7 1.7-4.1 6.1-4.7 7.3-0.7 1.2-2.1 0.7-1.9-0.4 0.4-2.6 2.6-7.8 2.8-8.4 0.4-0.9-0.5-1.7-1.7-0.4-0.7 0.6-3.7 4-6 9.1-3.7-0.7-7.5-0.8-11 1.5-6.2 4.1-6.3 13.3-2 18 3.1 3.5 4.9 5 6.2 9.8 1.6 5.8 5.3 10 11.1 10.6 5.3 0.6 9.2-3.3 11.6-7.5 2-3.7 4.6-6.1 9.9-9.8 6.1-4.3 5.1-13.7-0.3-17.7zm-30.4 12.8c-3.4-0.4-5.8-3.5-5.4-6.9 0.4-3.4 3.5-5.9 6.9-5.5 3.5 0.5 5.9 3.6 5.5 7-0.4 3.4-3.5 5.8-7 5.4zm12.2 7c-0.2 0.9-1.2 1.5-3.8 1-2.5-0.5-2.7-1.5-2.4-2.5 0.2-1.1 3-5.2 4.1-5 1.1 0.2 2.4 5.2 2.1 6.5zm15.8-9.9c-0.4 3.6-3.6 6.1-7.1 5.7-3.6-0.4-6.1-3.7-5.7-7.2 0.4-3.5 3.7-6.1 7.2-5.7 3.5 0.5 6.1 3.7 5.6 7.2z"/><path class="b" d="m24.5 582.8l-0.2-9c0-0.7-0.6-1.3-1.3-1.3-0.7 0-1.3 0.6-1.3 1.3l-0.2 9-5.3 5.2v24.5h13.5v-24.5z"/><path class="b" d="m47.9 572.5h-13.7v40h19.6v-21.5l-5.9-5.9zm-3.4 10.2h-6.9v-6.9h6.9z"/><path class="b" d="m130.5 591c0 0-8.5-2.1-17.5-0.6-7.4 1.2-15.1 2.5-17.8 2.9-3.6-3.9-10.6-11.1-11.2-11.7-0.8-1-2-0.7-1.8 0.5l4.1 16.5c-1.2 0.3-4.1 1.1-5.4 3.5 2.3 1.6 5.2 1 6.4 0.7l0.9 3.6 8.1-1-1.7 6.9c0.1 0.4 0.4 0.7 0.6 0.7l10.9-2.4c0.5-0.1 0.8-0.5 0.9-0.9l2.9-6.4c0 0 4.9-1.1 10.4-3 8.2-2.9 10.8-6.4 10.8-6.4 0 0-0.6-2.9-0.6-2.9z"/><path class="b" d="m104.4 581.6c-4 0-7.2 3.1-7.9 7l15.4-2.6c-1.4-2.5-4.3-4.4-7.5-4.4z"/><path class="b" d="m173.9 573.7l-22.4 33.6h34.7z"/><path class="b" d="m180.8 579.4l10.2 27.9h7.5z"/><path class="b" d="m51.4 655.7c1.8-3.7 1.1-8.3-2-11.3-3-3.1-7.6-3.8-11.3-2 0.6 3.2 2.2 6.2 4.6 8.7 2.5 2.4 5.5 4 8.7 4.6z"/><path class="b" d="m48.9 659c-3.5-0.5-6.7-2.1-9.4-4.7-2.6-2.7-4.2-6-4.7-9.4-3.4 4-3.2 9.9 0.5 13.6 3.7 3.7 9.6 3.9 13.6 0.5z"/><path class="b" d="m52.9 684.1c-1.5-6.4-7.4-8.8-12.2-8.2-3.6 0.4-6 2-8.3 3.6-2.4 1.7-4.8 3.3-8.7 3.3-1.8 0-3.4-1-4-2.5-0.7-1.7 0-3.7 2-5.7h0.1c0.4 0.3 0.8 0.7 1.1 0.9 0.6 0.3 1.4 0.3 2-0.2l12.6-10.2c-1.9-0.7-3.8-1.8-5.4-3.4-1.6-1.6-2.7-3.5-3.4-5.4l-10.2 12.6c-0.5 0.6-0.5 1.4-0.2 2 0.2 0.3 0.6 0.7 0.9 1.1v0.1c-3.1 3-4.1 6.5-2.8 9.6 1.1 2.8 4.1 4.7 7.3 4.7 5.1 0 8.1-2.1 10.8-3.9 2.1-1.5 3.9-2.8 6.6-3 2.4-0.3 7.1 0.5 8.3 5.5 0.2 0.8 0.9 1.4 1.8 1.4q0.2 0 0.4-0.1c0.9-0.2 1.5-1.2 1.3-2.2z"/><path class="b" d="m184.4 657.1v-8.8c0-2.9-4-7.2-9.4-7.2-5.4 0-9.4 4.3-9.4 7.2v8.8c0 0 18.8 0 18.8 0z"/><path class="b" d="m178.1 681.9h-6.2c-2.6 4.9 3.1 8.4 3.1 8.4 0 0 5.7-3.5 3.1-8.4z"/><path class="b" d="m189.2 661.6h-28.3c-4.2 2.1-7.8 7.5-9.6 12.1h9.9l3 3.7h21.6l3.1-3.7h9.8c-1.8-4.6-5.4-10-9.5-12.1z"/><path class="b" d="m125 644.7h-3.1l-0.8 6.9h-32.2l-0.8-6.9h-3.1l-1.1 21.1c-0.1 1.1 0.5 2.1 1.5 2.6l19.6 9.9 19.6-9.9c1-0.5 1.6-1.5 1.5-2.6zm-5.1 18l-14.9 7.1-14.9-7.1-0.6-5.4h31l-0.6 5.4z"/><path class="b" d="m89.7 675.7c0.7 4.6 3.6 8.6 7.7 10.8l7.4 3.7 7.4-3.7c4.2-2.2 7.1-6.2 7.8-10.8l-15.2 7.9z"/><path fill-rule="evenodd" class="b" d="m35 317.2c-1.2 0-2.2-1-2.2-2.2 0-1.2 1-2.2 2.2-2.2 1.2 0 2.2 1 2.2 2.2 0 1.2-1 2.2-2.2 2.2z"/><path class="b" d="m41.3 84.4v10.4h11.7c0.4 0 0.8 0.1 1.1 0.4l0.4 1.1-0.4 1.1c-0.3 0.3-0.7 0.4-1.1 0.4h-13.3c-0.4 0-0.8-0.1-1.1-0.4-0.3-0.3-0.4-0.7-0.4-1.1v-11.9c0-0.4 0.1-0.8 0.4-1.1 0.3-0.3 0.7-0.4 1.1-0.4 0.4 0 0.8 0.1 1.1 0.4 0.2 0.3 0.5 0.7 0.5 1.1zm-1.5 18.8h13.3l1.1 0.4c0.3 0.3 0.4 0.7 0.4 1.1l-0.4 1.1-1.1 0.3h-11.8v17.7l-0.4 1.1c-0.3 0.3-0.7 0.5-1.1 0.5-0.4 0-0.8-0.1-1.1-0.5-0.3-0.3-0.4-0.7-0.4-1.1v-19.2c0-0.4 0.1-0.8 0.4-1.1 0.3-0.3 0.7-0.3 1.1-0.3zm-8.1-18.8v11.8l-0.5 1.1-1.1 0.4h-13.1c-0.4 0-0.8-0.1-1.1-0.4-0.3-0.3-0.4-0.7-0.4-1.1 0-0.4 0.1-0.8 0.4-1.1 0.3-0.3 0.7-0.4 1.1-0.4h11.8v-10.3c0-0.4 0.1-0.8 0.4-1.1 0.3-0.3 0.7-0.4 1.1-0.4 0.4 0 0.8 0.1 1.1 0.4 0.2 0.3 0.3 0.7 0.3 1.1zm-15.8 19.2c0.3-0.3 0.7-0.4 1.1-0.4h13.1c0.4 0 0.8 0.1 1.1 0.4 0.3 0.3 0.5 0.7 0.5 1.1v19.2l-0.5 1.1-1.1 0.5c-0.4 0-0.8-0.1-1.1-0.5-0.3-0.3-0.4-0.7-0.4-1.1v-17.7h-11.8c-0.4 0-0.8-0.1-1.1-0.4-0.3-0.3-0.4-0.7-0.4-1.1 0.2-0.5 0.4-0.9 0.6-1.1z"/><path class="b" d="m106.3 92.7v2h16.6l1.1 0.5c0.3 0.3 0.4 0.7 0.4 1l-0.4 1.2-1.1 0.3h-16.6v24.5c3-0.5 5.6-2.1 8-5.3 2.6-3.5 4.1-7.5 4.3-11.8l-0.1-0.4c0-0.4 0.1-0.8 0.4-1.1 0.3-0.3 0.5-0.5 1.1-0.5h2.9c0.4 0 0.8 0.1 1.1 0.4l0.5 1.1-0.4 1.1c-0.3 0.3-0.7 0.5-1.1 0.5h-1.6c-0.4 4.5-2 8.7-4.9 12.5-3.3 4.3-7 6.4-11.2 6.6h-0.5-0.4c-4.2 0-8-2.2-11.2-6.6-2.8-3.8-4.3-7.9-4.7-12.5h-1.6c-0.4 0-0.8-0.1-1.1-0.4-0.3-0.3-0.4-0.7-0.4-1.1 0-0.4 0.1-0.8 0.4-1.1 0.3-0.3 0.7-0.4 1.1-0.4h2.9l1.1 0.4c0.3 0.3 0.4 0.7 0.4 1.1v0.5c0.1 4.2 1.6 8.1 4.2 11.8 2.4 3.2 5 4.9 8 5.3v-24.6h-16.7c-0.4 0-0.8 0-1.1-0.3-0.3-0.3-0.4-0.7-0.4-1.2 0-0.3 0.1-0.7 0.4-1 0.3-0.4 0.7-0.5 1.1-0.5h16.6v-2.1c-0.8-0.4-1.4-0.7-2-1.2-0.9-0.9-1.4-2.2-1.3-3.4 0-1.3 0.4-2.5 1.3-3.4 0.9-0.9 2.1-1.4 3.4-1.4 1.3 0 2.5 0.5 3.5 1.4 0.9 0.9 1.4 2.1 1.4 3.4 0 1.2-0.5 2.4-1.4 3.4zm0.8-4.6c0-0.7-0.3-1.2-0.8-1.7-0.4-0.4-1.1-0.7-1.7-0.7-0.7 0-1.2 0.3-1.6 0.7-0.4 0.4-0.7 1.1-0.7 1.7 0 0.5 0.3 1.1 0.7 1.4l1.6 0.8 1.7-0.8z"/><path class="b" d="m175.8 83.1l6.9 3.2 0.8 0.8v1.1l-0.9 0.8h-1.1l-4.9-2.2v5.1l10.5 4.7 0.5 0.8v1.2l-0.8 0.7h-1.1l-9.2-4.2v5.8l12.6 5.6 0.9 0.8v1.2l-1 0.8h-1l-11.4-5.1v6l17.1 8.9 0.8 0.9-0.3 1.1-0.8 0.7-1.2-0.1-15.8-8.5v10.6l-0.4 1.1-1.1 0.5c-0.4 0-0.8-0.1-1.1-0.5-0.3-0.3-0.4-0.7-0.4-1.1v-10.6l-15.7 8.2-1.1 0.1-0.9-0.7c-0.1-0.4-0.3-0.8-0.1-1.1 0.1-0.4 0.4-0.8 0.9-0.9l17.1-8.9-0.1-6.2-11.5 5.3h-1.3c-0.4-0.1-0.7-0.4-0.8-0.8-0.1-0.4-0.1-0.7 0-1.2 0.1-0.4 0.4-0.7 0.8-0.8l12.7-5.8v-5.6l-9.2 4.2h-1.2l-0.8-0.7q-0.1-0.6 0-1.2c0.1-0.4 0.4-0.7 0.8-0.8l10.5-4.7v-5.1l-4.7 2.2h-1.2l-0.9-0.8c-0.1-0.4-0.1-0.8-0.1-1.2 0.1-0.4 0.4-0.7 0.9-0.8l6.6-3c0-0.1 0.1-0.1 0.4-0.1h0.5 0.5z"/></svg>